<svg xmlns="http://www.w3.org/2000/svg" width="512" height="512" viewBox="0 0 512 512">
  <defs>
    <linearGradient id="sky" x1="0" y1="0" x2="0" y2="1">
      <stop offset="0" stop-color="#19c2c2"/>
      <stop offset="0.55" stop-color="#0e8c8c"/>
      <stop offset="1" stop-color="#ff9558"/>
    </linearGradient>
  </defs>
  <rect width="512" height="512" rx="96" fill="url(#sky)"/>
  <circle cx="256" cy="180" r="64" fill="#ffd54a"/>
  <!-- road -->
  <path d="M120 430 L210 250 L302 250 L392 430 Z" fill="#2b3947" opacity="0.85"/>
  <rect x="248" y="270" width="16" height="34" rx="6" fill="#fff"/>
  <rect x="248" y="330" width="16" height="40" rx="6" fill="#fff"/>
  <!-- camper van -->
  <g transform="translate(150 300)">
    <rect x="0" y="20" width="150" height="70" rx="16" fill="#ff6b5e"/>
    <rect x="100" y="36" width="46" height="34" rx="8" fill="#bfeefb"/>
    <rect x="12" y="36" width="70" height="22" rx="6" fill="#fff" opacity="0.9"/>
    <circle cx="36" cy="96" r="18" fill="#1f2a37"/>
    <circle cx="36" cy="96" r="7" fill="#cdd6db"/>
    <circle cx="116" cy="96" r="18" fill="#1f2a37"/>
    <circle cx="116" cy="96" r="7" fill="#cdd6db"/>
  </g>
  <text x="256" y="478" text-anchor="middle" font-family="Verdana, sans-serif" font-size="40" font-weight="bold" fill="#ffffff">RT 2026</text>
</svg>
